HIERARCHY
ROOT Hips
{
	OFFSET 0.000000 100.481300 0.000000
	CHANNELS 6 Xposition Yposition Zposition Xrotation Yrotation Zrotation 
	JOINT Spine
	{
		OFFSET -0.279200 12.230698 -2.892100
		CHANNELS 3 Xrotation Yrotation Zrotation
		JOINT Spine1
		{
			OFFSET -0.232667 10.192268 -1.242267
			CHANNELS 3 Xrotation Yrotation Zrotation
			JOINT Spine1_split
			{
				OFFSET -0.232667 10.192268 -1.242267
				CHANNELS 3 Xrotation Yrotation Zrotation
				JOINT Spine2
				{
					OFFSET -0.232667 10.192268 -1.242267
					CHANNELS 3 Xrotation Yrotation Zrotation
					JOINT Neck
					{
						OFFSET -0.418800 17.814194 8.416900
						CHANNELS 3 Xrotation Yrotation Zrotation
						JOINT Head
						{
							OFFSET 0.000000 7.031097 3.806800
							CHANNELS 3 Xrotation Yrotation Zrotation
							JOINT HeadTop_End
							{
								OFFSET 0.000000 24.646606 12.978600
								CHANNELS 3 Xrotation Yrotation Zrotation
								End Site
								{
									OFFSET 0.000000 0.000000 0.000000
								}
							}
						}
					}
					JOINT LeftShoulder
					{
						OFFSET 8.476499 7.247704 -3.868750
						CHANNELS 3 Xrotation Yrotation Zrotation
						JOINT LeftShoulder_split
						{
							OFFSET 8.476499 7.247704 -3.868750
							CHANNELS 3 Xrotation Yrotation Zrotation
							JOINT LeftArm
							{
								OFFSET 9.308998 -2.777710 0.208600
								CHANNELS 3 Xrotation Yrotation Zrotation
								JOINT LeftForeArm
								{
									OFFSET 29.972298 0.000000 0.000000
									CHANNELS 3 Xrotation Yrotation Zrotation
									JOINT LeftHand
									{
										OFFSET 26.026505 0.000000 0.000000
										CHANNELS 3 Xrotation Yrotation Zrotation
										JOINT LeftHandThumb1
										{
											OFFSET 12.240501 -7.147949 9.207150
											CHANNELS 3 Xrotation Yrotation Zrotation
											JOINT LeftHandThumb2
											{
												OFFSET 4.138618 -2.389435 2.389433
												CHANNELS 3 Xrotation Yrotation Zrotation
												JOINT LeftHandThumb3
												{
													OFFSET 2.726913 -1.574387 1.574386
													CHANNELS 3 Xrotation Yrotation Zrotation
													JOINT LeftHandThumb4
													{
														OFFSET 3.941010 -2.275345 2.275342
														CHANNELS 3 Xrotation Yrotation Zrotation
														End Site
														{
															OFFSET 0.000000 0.000000 0.000000
														}
													}
												}
											}
										}
										JOINT LeftHandIndex1
										{
											OFFSET 24.424698 -1.985611 5.953459
											CHANNELS 3 Xrotation Yrotation Zrotation
											JOINT LeftHandIndex2
											{
												OFFSET 6.426697 0.000000 0.000000
												CHANNELS 3 Xrotation Yrotation Zrotation
												JOINT LeftHandIndex3
												{
													OFFSET 5.337898 0.000000 0.000000
													CHANNELS 3 Xrotation Yrotation Zrotation
													JOINT LeftHandIndex4
													{
														OFFSET 4.409401 0.000000 0.000000
														CHANNELS 3 Xrotation Yrotation Zrotation
														End Site
														{
															OFFSET 0.000000 0.000000 0.000000
														}
													}
												}
											}
										}
										JOINT LeftHandMiddle1
										{
											OFFSET 23.810104 0.000000 0.000000
											CHANNELS 3 Xrotation Yrotation Zrotation
											JOINT LeftHandMiddle2
											{
												OFFSET 7.176498 0.000000 0.000000
												CHANNELS 3 Xrotation Yrotation Zrotation
												JOINT LeftHandMiddle3
												{
													OFFSET 6.774902 0.000000 0.000000
													CHANNELS 3 Xrotation Yrotation Zrotation
													JOINT LeftHandMiddle4
													{
														OFFSET 5.403328 0.000000 0.000000
														CHANNELS 3 Xrotation Yrotation Zrotation
														End Site
														{
															OFFSET 0.000000 0.000000 0.000000
														}
													}
												}
											}
										}
										JOINT LeftHandRing1
										{
											OFFSET 22.908401 -0.839279 -6.020567
											CHANNELS 3 Xrotation Yrotation Zrotation
											JOINT LeftHandRing2
											{
												OFFSET 6.337502 0.000000 0.000000
												CHANNELS 3 Xrotation Yrotation Zrotation
												JOINT LeftHandRing3
												{
													OFFSET 5.779297 0.000000 0.000000
													CHANNELS 3 Xrotation Yrotation Zrotation
													JOINT LeftHandRing4
													{
														OFFSET 4.965698 0.000000 0.000000
														CHANNELS 3 Xrotation Yrotation Zrotation
														End Site
														{
															OFFSET 0.000000 0.000000 0.000000
														}
													}
												}
											}
										}
										JOINT LeftHandPinky1
										{
											OFFSET 20.037003 -1.530319 -10.950146
											CHANNELS 3 Xrotation Yrotation Zrotation
											JOINT LeftHandPinky2
											{
												OFFSET 5.254700 0.000000 0.000000
												CHANNELS 3 Xrotation Yrotation Zrotation
												JOINT LeftHandPinky3
												{
													OFFSET 4.810204 0.000000 0.000000
													CHANNELS 3 Xrotation Yrotation Zrotation
													JOINT LeftHandPinky4
													{
														OFFSET 3.647202 0.000000 0.000000
														CHANNELS 3 Xrotation Yrotation Zrotation
														End Site
														{
															OFFSET 0.000000 0.000000 0.000000
														}
													}
												}
											}
										}
									}
								}
							}
						}
					}
					JOINT RightShoulder
					{
						OFFSET -7.570500 7.247704 -3.868750
						CHANNELS 3 Xrotation Yrotation Zrotation
						JOINT RightShoulder_split
						{
							OFFSET -7.570500 7.247704 -3.868750
							CHANNELS 3 Xrotation Yrotation Zrotation
							JOINT RightArm
							{
								OFFSET -9.308998 -2.777710 0.208500
								CHANNELS 3 Xrotation Yrotation Zrotation
								JOINT RightForeArm
								{
									OFFSET -29.972300 0.000000 0.000000
									CHANNELS 3 Xrotation Yrotation Zrotation
									JOINT RightHand
									{
										OFFSET -26.026505 0.000000 0.000000
										CHANNELS 3 Xrotation Yrotation Zrotation
										JOINT RightHandThumb1
										{
											OFFSET -12.240601 -7.148026 9.207092
											CHANNELS 3 Xrotation Yrotation Zrotation
											JOINT RightHandThumb2
											{
												OFFSET -4.138618 -2.389435 2.389433
												CHANNELS 3 Xrotation Yrotation Zrotation
												JOINT RightHandThumb3
												{
													OFFSET -2.726974 -1.574417 1.574421
													CHANNELS 3 Xrotation Yrotation Zrotation
													JOINT RightHandThumb4
													{
														OFFSET -3.941010 -2.275345 2.275343
														CHANNELS 3 Xrotation Yrotation Zrotation
														End Site
														{
															OFFSET 0.000000 0.000000 0.000000
														}
													}
												}
											}
										}
										JOINT RightHandIndex1
										{
											OFFSET -24.424698 -1.985657 5.953444
											CHANNELS 3 Xrotation Yrotation Zrotation
											JOINT RightHandIndex2
											{
												OFFSET -6.426697 0.000000 0.000000
												CHANNELS 3 Xrotation Yrotation Zrotation
												JOINT RightHandIndex3
												{
													OFFSET -5.337898 0.000000 0.000000
													CHANNELS 3 Xrotation Yrotation Zrotation
													JOINT RightHandIndex4
													{
														OFFSET -4.409401 0.000000 0.000000
														CHANNELS 3 Xrotation Yrotation Zrotation
														End Site
														{
															OFFSET 0.000000 0.000000 0.000000
														}
													}
												}
											}
										}
										JOINT RightHandMiddle1
										{
											OFFSET -23.810097 0.000000 0.000000
											CHANNELS 3 Xrotation Yrotation Zrotation
											JOINT RightHandMiddle2
											{
												OFFSET -7.176498 0.000000 0.000000
												CHANNELS 3 Xrotation Yrotation Zrotation
												JOINT RightHandMiddle3
												{
													OFFSET -6.774902 0.000000 0.000000
													CHANNELS 3 Xrotation Yrotation Zrotation
													JOINT RightHandMiddle4
													{
														OFFSET -5.403328 0.000000 0.000000
														CHANNELS 3 Xrotation Yrotation Zrotation
														End Site
														{
															OFFSET 0.000000 0.000000 0.000000
														}
													}
												}
											}
										}
										JOINT RightHandRing1
										{
											OFFSET -22.908302 -0.839325 -6.020576
											CHANNELS 3 Xrotation Yrotation Zrotation
											JOINT RightHandRing2
											{
												OFFSET -6.337502 0.000000 0.000000
												CHANNELS 3 Xrotation Yrotation Zrotation
												JOINT RightHandRing3
												{
													OFFSET -5.779297 0.000000 0.000000
													CHANNELS 3 Xrotation Yrotation Zrotation
													JOINT RightHandRing4
													{
														OFFSET -4.965698 0.000000 0.000000
														CHANNELS 3 Xrotation Yrotation Zrotation
														End Site
														{
															OFFSET 0.000000 0.000000 0.000000
														}
													}
												}
											}
										}
										JOINT RightHandPinky1
										{
											OFFSET -20.037003 -1.530334 -10.950259
											CHANNELS 3 Xrotation Yrotation Zrotation
											JOINT RightHandPinky2
											{
												OFFSET -5.254700 0.000000 0.000000
												CHANNELS 3 Xrotation Yrotation Zrotation
												JOINT RightHandPinky3
												{
													OFFSET -4.810204 0.000000 0.000000
													CHANNELS 3 Xrotation Yrotation Zrotation
													JOINT RightHandPinky4
													{
														OFFSET -3.647202 0.000000 0.000000
														CHANNELS 3 Xrotation Yrotation Zrotation
														End Site
														{
															OFFSET 0.000000 0.000000 0.000000
														}
													}
												}
											}
										}
									}
								}
							}
						}
					}
				}
			}
		}
	}
	JOINT LeftUpLeg
	{
		OFFSET 15.427100 -6.655098 0.678600
		CHANNELS 3 Xrotation Yrotation Zrotation
		JOINT LeftLeg
		{
			OFFSET 4.081073 -39.591068 13.024000
			CHANNELS 3 Xrotation Yrotation Zrotation
			JOINT LeftFoot
			{
				OFFSET -4.081074 -37.707932 -15.979700
				CHANNELS 3 Xrotation Yrotation Zrotation
				JOINT LeftToeBase
				{
					OFFSET 5.346399 -15.068900 20.645000
					CHANNELS 3 Xrotation Yrotation Zrotation
					JOINT LeftToe_End
					{
						OFFSET 2.754700 0.931300 11.300900
						CHANNELS 3 Xrotation Yrotation Zrotation
						End Site
						{
							OFFSET 0.000000 0.000000 0.000000
						}
					}
				}
			}
		}
	}
	JOINT RightUpLeg
	{
		OFFSET -15.569500 -6.655098 0.678600
		CHANNELS 3 Xrotation Yrotation Zrotation
		JOINT RightLeg
		{
			OFFSET -4.081825 -39.591045 13.023800
			CHANNELS 3 Xrotation Yrotation Zrotation
			JOINT RightFoot
			{
				OFFSET 4.081824 -37.707954 -15.979600
				CHANNELS 3 Xrotation Yrotation Zrotation
				JOINT RightToeBase
				{
					OFFSET -5.346400 -15.068900 20.645000
					CHANNELS 3 Xrotation Yrotation Zrotation
					JOINT RightToe_End
					{
						OFFSET -2.754700 0.931300 11.300900
						CHANNELS 3 Xrotation Yrotation Zrotation
						End Site
						{
							OFFSET 0.000000 0.000000 0.000000
						}
					}
				}
			}
		}
	}
}
MOTION
Frames: 4
Frame Time: 0.016667
3.461472 78.543304 -2.322155 21.227285 -4.637010 -27.297012 9.672272 1.974971 -16.487844 6.445043 2.740805 -10.688264 0.000000 0.000000 0.000000 6.249410 2.693589 -10.811391 -0.796411 4.356709 -3.690195 -8.154886 18.426616 -3.530656 0.000001 -0.000001 -0.000000 0.763375 -2.243202 16.026737 0.000000 0.000000 0.000000 -56.139599 -44.766648 -98.210013 -0.000017 -55.603884 -0.000017 -74.109697 -27.707897 14.239187 35.234535 -17.219617 -17.236887 29.406840 28.726515 -29.411775 9.113608 14.378716 -9.922576 0.000004 0.000003 -0.000003 0.797684 3.221911 -27.804747 0.799598 3.225522 -27.838620 0.202692 1.661521 -13.908059 0.000000 0.000000 -0.000002 0.796781 3.220216 -27.788719 0.800502 3.227229 -27.854645 0.202683 1.661522 -13.908059 -0.000002 -0.000001 0.000002 0.797684 3.221911 -27.804747 0.799595 3.225524 -27.838615 0.202686 1.661519 -13.908062 -0.000001 0.000001 -0.000005 2.684954 6.814111 -27.459497 0.809063 -0.835568 -28.291871 0.202691 1.661521 -13.908062 -0.000001 0.000000 -0.000004 -0.201837 -4.974899 1.334804 0.000000 0.000000 0.000000 -165.753323 118.380183 181.246883 -0.000083 71.160155 0.000066 -23.198485 1.097501 -16.760429 40.606646 -3.110518 26.124236 -37.849473 -44.265035 -46.874939 -12.282878 -22.415209 -17.633351 -0.000000 0.000000 0.000000 3.635322 -6.111007 61.464490 7.728618 -6.904471 96.464456 2.305145 -5.174781 47.998758 0.000004 0.000001 0.000001 3.635322 -6.111005 61.464497 7.728616 -6.904467 96.464449 2.305149 -5.174784 47.998755 -0.000002 0.000000 0.000000 3.635323 -6.111004 61.464490 7.728616 -6.904476 96.464449 2.305150 -5.174783 47.998755 0.000001 0.000000 0.000000 3.635322 -6.111007 61.464497 7.728627 -6.904476 96.464449 2.305140 -5.174776 47.998755 0.000001 -0.000000 0.000000 -77.891662 -7.835921 23.575704 62.494940 -6.759384 10.895190 -10.427377 -3.777189 -3.029659 -0.000032 -0.000001 0.000001 0.000000 0.000000 0.000000 -29.525569 -29.203061 9.322132 37.351928 -7.996020 2.109306 -15.359176 -10.646697 12.605007 -0.050678 -0.000009 0.000003 -0.000000 0.000000 0.000000 
3.478432 78.621811 -2.347874 21.025959 -4.902570 -26.938797 9.732914 1.939389 -16.398430 6.493364 2.713992 -10.616017 0.000000 0.000000 0.000000 6.300747 2.667749 -10.739118 0.207085 4.314703 -3.404725 -7.207426 18.522102 -2.767398 -0.000001 -0.000001 0.000000 0.722188 -2.099713 15.969373 0.000000 0.000000 0.000000 -55.551476 -45.310819 -97.712632 0.000013 -55.603003 0.000011 -74.614762 -26.963275 14.427173 35.234542 -17.219616 -17.236887 29.406840 28.726515 -29.411775 9.113606 14.378718 -9.922577 0.000001 0.000002 -0.000003 0.797683 3.221912 -27.804749 0.799602 3.225523 -27.838618 0.202688 1.661522 -13.908061 0.000000 -0.000001 -0.000002 0.796780 3.220219 -27.788724 0.800503 3.227229 -27.854645 0.202680 1.661524 -13.908061 -0.000002 0.000000 -0.000001 0.797683 3.221912 -27.804749 0.799599 3.225525 -27.838620 0.202690 1.661520 -13.908057 0.000001 0.000000 -0.000001 2.684954 6.814113 -27.459498 0.809064 -0.835569 -28.291871 0.202691 1.661521 -13.908062 -0.000000 -0.000001 -0.000000 -0.173786 -4.568119 0.662821 0.000000 0.000000 0.000000 -166.330433 118.064601 182.610053 -0.000114 70.533916 0.000123 -24.020034 1.292605 -16.773083 40.606646 -3.110518 26.124237 -37.849469 -44.265032 -46.874943 -12.282882 -22.415206 -17.633349 -0.000003 0.000000 -0.000000 3.635324 -6.111007 61.464497 7.728614 -6.904470 96.464456 2.305149 -5.174782 47.998755 0.000000 -0.000000 0.000000 3.635324 -6.111007 61.464490 7.728617 -6.904472 96.464449 2.305143 -5.174787 47.998762 0.000000 -0.000000 -0.000000 3.635325 -6.111005 61.464490 7.728617 -6.904477 96.464456 2.305149 -5.174779 47.998758 0.000002 -0.000000 -0.000000 3.635324 -6.111007 61.464490 7.728625 -6.904476 96.464449 2.305143 -5.174775 47.998758 0.000002 -0.000000 -0.000001 -77.622341 -7.262315 23.810845 62.390595 -6.801639 10.895143 -10.517166 -3.722971 -2.943173 -0.000003 -0.000006 -0.000001 -0.000000 0.000000 0.000000 -29.655964 -28.891471 9.035500 37.356077 -7.995070 2.175913 -15.271429 -10.481958 12.518997 -0.049235 -0.000007 0.000006 -0.000000 0.000003 0.000000 
3.481823 78.696129 -2.369514 20.795266 -5.224127 -26.599342 9.780378 1.905380 -16.311347 6.534459 2.691598 -10.541846 0.000000 0.000000 0.000000 6.345195 2.646786 -10.664546 1.163595 4.299134 -3.121158 -6.113499 18.694853 -2.004242 0.000000 -0.000001 0.000001 0.658050 -1.924509 15.859501 0.000000 0.000000 0.000000 -54.937937 -45.760020 -97.271524 0.000025 -55.535992 0.000028 -74.975499 -26.281407 14.629531 35.234538 -17.219617 -17.236889 29.406836 28.726522 -29.411782 9.113609 14.378716 -9.922574 -0.000004 0.000001 -0.000001 0.797686 3.221911 -27.804752 0.799598 3.225521 -27.838615 0.202691 1.661520 -13.908060 -0.000003 0.000000 -0.000001 0.796783 3.220215 -27.788719 0.800501 3.227228 -27.854645 0.202683 1.661526 -13.908059 0.000000 -0.000001 0.000003 0.797686 3.221911 -27.804744 0.799598 3.225524 -27.838618 0.202691 1.661519 -13.908056 -0.000001 -0.000001 -0.000002 2.684956 6.814111 -27.459498 0.809059 -0.835567 -28.291871 0.202692 1.661522 -13.908061 -0.000000 0.000000 -0.000003 -0.134079 -4.148862 0.057178 0.000000 0.000000 0.000000 -166.688868 117.680061 183.667516 -0.000053 69.803748 0.000058 -24.844052 1.637650 -16.745380 40.606646 -3.110518 26.124234 -37.849466 -44.265032 -46.874946 -12.282874 -22.415206 -17.633349 -0.000002 -0.000001 -0.000001 3.635322 -6.111006 61.464497 7.728618 -6.904471 96.464456 2.305148 -5.174781 47.998755 0.000001 -0.000000 0.000000 3.635322 -6.111005 61.464497 7.728619 -6.904472 96.464449 2.305146 -5.174784 47.998751 -0.000001 -0.000001 -0.000000 3.635325 -6.111004 61.464497 7.728617 -6.904475 96.464449 2.305147 -5.174779 47.998751 -0.000000 -0.000000 0.000000 3.635322 -6.111006 61.464490 7.728627 -6.904477 96.464449 2.305146 -5.174775 47.998758 -0.000001 -0.000001 0.000000 -77.311396 -6.746549 24.093861 62.310832 -6.857525 10.895858 -10.634884 -3.593260 -2.892114 0.000002 0.000003 -0.000002 0.000000 -0.000000 -0.000000 -29.757382 -28.545838 8.821178 37.354209 -8.006180 2.220932 -15.179202 -10.304142 12.432544 -0.048207 -0.000015 -0.000010 -0.000000 -0.000002 0.000000 
3.476215 78.765175 -2.394405 20.550547 -5.599173 -26.278982 9.819438 1.866801 -16.219900 6.573784 2.667612 -10.462869 0.000000 0.000000 0.000000 6.388360 2.625516 -10.584660 2.049147 4.309120 -2.841964 -4.886949 18.949337 -1.267608 -0.000000 0.000002 -0.000000 0.564449 -1.708717 15.694796 0.000000 0.000000 0.000000 -54.281439 -46.142490 -96.841373 -0.000037 -55.447933 -0.000041 -75.196572 -25.642180 14.844982 35.234549 -17.219617 -17.236891 29.406843 28.726522 -29.411782 9.113609 14.378718 -9.922574 -0.000004 0.000000 0.000000 0.797685 3.221911 -27.804749 0.799599 3.225522 -27.838618 0.202691 1.661521 -13.908060 0.000001 0.000002 -0.000005 0.796778 3.220218 -27.788724 0.800504 3.227230 -27.854644 0.202682 1.661523 -13.908056 -0.000000 -0.000000 0.000003 0.797685 3.221911 -27.804747 0.799599 3.225524 -27.838620 0.202685 1.661518 -13.908058 -0.000001 0.000000 -0.000001 2.684952 6.814111 -27.459497 0.809063 -0.835569 -28.291875 0.202690 1.661522 -13.908060 -0.000000 -0.000001 0.000000 -0.081814 -3.700187 -0.513619 0.000000 0.000000 0.000000 -166.971160 117.245251 184.572339 0.000034 69.013406 -0.000017 -25.647676 2.088049 -16.706901 40.606636 -3.110519 26.124241 -37.849469 -44.265025 -46.874943 -12.282884 -22.415204 -17.633347 -0.000001 -0.000002 -0.000001 3.635317 -6.111007 61.464490 7.728611 -6.904464 96.464449 2.305152 -5.174780 47.998762 0.000000 -0.000000 -0.000000 3.635319 -6.111004 61.464497 7.728616 -6.904470 96.464449 2.305142 -5.174786 47.998755 -0.000000 -0.000001 0.000000 3.635320 -6.111004 61.464497 7.728616 -6.904476 96.464449 2.305149 -5.174781 47.998758 0.000003 0.000000 -0.000000 3.635319 -6.111006 61.464490 7.728623 -6.904477 96.464449 2.305146 -5.174775 47.998762 0.000004 -0.000000 -0.000000 -76.976546 -6.295147 24.404141 62.251355 -6.925173 10.896660 -10.768530 -3.382587 -2.872348 -0.000022 -0.000003 -0.000001 0.000000 -0.000000 0.000000 -29.851396 -28.198424 8.674066 37.350599 -8.028008 2.224529 -15.077381 -10.099861 12.353141 -0.047448 0.000009 0.000001 0.000000 0.000002 0.000000 
